<svg xmlns="http://www.w3.org/2000/svg" width="129" height="21" viewBox="0 0 129 21" fill="none">
  <g clip-path="url(#clip0_613_157)">
    <path d="M4.49 20.4L6.18 13.08L0.5 8.16L8 7.51L10.92 0.6L13.84 7.5L21.34 8.15L15.66 13.07L17.35 20.39L10.92 16.51L4.49 20.39V20.4Z" fill="white"/>
    <path d="M31.28 20.4L32.97 13.08L27.29 8.16L34.79 7.51L37.71 0.6L40.63 7.5L48.13 8.15L42.45 13.07L44.14 20.39L37.71 16.51L31.28 20.39V20.4Z" fill="white"/>
    <path d="M58.07 20.4L59.76 13.08L54.08 8.16L61.58 7.51L64.5 0.6L67.42 7.5L74.92 8.15L69.24 13.07L70.93 20.39L64.5 16.51L58.07 20.39V20.4Z" fill="white"/>
    <path d="M84.86 20.4L86.55 13.08L80.87 8.16L88.37 7.51L91.29 0.6L94.21 7.5L101.71 8.15L96.03 13.07L97.72 20.39L91.29 16.51L84.86 20.39V20.4Z" fill="white"/>
    <path d="M111.65 20.4L113.34 13.08L107.66 8.16L115.16 7.51L118.08 0.6L121 7.5L128.5 8.15L122.82 13.07L124.51 20.39L118.08 16.51L111.65 20.39V20.4Z" fill="white"/>
  </g>
  <defs>
    <clipPath id="clip0_613_157">
      <rect width="128" height="20" fill="white" transform="translate(0.5 0.5)"/>
    </clipPath>
  </defs>
</svg>